# xmcd
#
# Track frame offsets:
#   150
#   26393
#   45973
#   65703
#   81476
#   101209
#   121317
#   131270
#   149372
#   170471
#   209004
#   227914
#   249008
#   271439
#   287609
#   302022
#   324356
#   346265
#
# Disc length: 4787 seconds
#
# Revision: 0
# Processed by: cddbd v1.5.1PL2 Copyright (c) Steve Scherf et al.
# Submitted via: Click'N Design 3D 5.1
#
DISCID=0312b112
DTITLE=Andrew and Jeanette - Jazz Master Flex
DYEAR=2006
DGENRE=Disco
TTITLE0=City of Blinding Lights
TTITLE1=Waiting on a Sunny Day
TTITLE2=When You Say Nothing At All
TTITLE3=Mud on the Tires
TTITLE4=Tura-Lura-Lural (That's an Irish Lullaby)
TTITLE5=4th of July
TTITLE6=I've Got The Wolrd On a String
TTITLE7=The Only Living Boy in New York
TTITLE8=The Luckiest
TTITLE9=Bartender
TTITLE10=Long Time Gone
TTITLE11=Golden
TTITLE12=Soulshine
TTITLE13=Forever And Ever, Amen
TTITLE14=The Man in Me
TTITLE15=Trenchtown Rock
TTITLE16=Waste
TTITLE17=For Once in My Life
EXTD=
EXTT0=
EXTT1=
EXTT2=
EXTT3=
EXTT4=
EXTT5=
EXTT6=
EXTT7=
EXTT8=
EXTT9=
EXTT10=
EXTT11=
EXTT12=
EXTT13=
EXTT14=
EXTT15=
EXTT16=
EXTT17=
PLAYORDER=
